<?xml version="1.0" encoding="UTF-8"?>
<svg id="Layer_1" data-name="Layer 1" xmlns="http://www.w3.org/2000/svg" xmlns:xlink="http://www.w3.org/1999/xlink" viewBox="0 0 109.47 21.4">
  <defs>
    <style>
      .cls-1 {
        fill: url(#linear-gradient);
      }

      .cls-2 {
        fill: #fff;
      }
    </style>
    <linearGradient id="linear-gradient" x1="2.56" y1="21.17" x2="2.56" y2="0" gradientUnits="userSpaceOnUse">
      <stop offset="0" stop-color="#ded4c1"/>
      <stop offset=".1" stop-color="#d7d3c4"/>
      <stop offset=".23" stop-color="#c5d3cf"/>
      <stop offset=".38" stop-color="#a8d2e1"/>
      <stop offset=".47" stop-color="#96d2ed"/>
      <stop offset=".62" stop-color="#8ebfe1"/>
      <stop offset=".93" stop-color="#798ec3"/>
      <stop offset="1" stop-color="#7583bc"/>
    </linearGradient>
  </defs>
  <path class="cls-1" d="M.7,4.22c-.47-.45-.7-1.04-.7-1.77S.23,1.12.7.67c.47-.45,1.09-.67,1.86-.67s1.4.22,1.86.67c.47.45.7,1.04.7,1.77s-.23,1.33-.7,1.77c-.47.45-1.09.67-1.86.67s-1.39-.22-1.86-.67ZM.54,6.29h4.05v14.87H.54V6.29Z"/>
  <path class="cls-2" d="M8.59,6.29h3.76v1.79c.44-.62,1-1.11,1.7-1.47.7-.37,1.39-.55,2.09-.55h1.79c1.59,0,2.87.5,3.83,1.49.96.99,1.45,2.31,1.45,3.93v9.69h-4.05v-9.54c0-.62-.16-1.11-.49-1.49s-.75-.57-1.27-.57h-1.79c-.69,0-1.31.25-1.86.76-.55.51-.91,1.17-1.09,1.98v8.85h-4.05V6.29Z"/>
  <path class="cls-2" d="M29.12,19.97c-.82-.79-1.22-2.03-1.22-3.7v-6.53h-2.62v-3.46h2.74V1.79h3.93v4.5h3.87v3.46h-3.87v6.35c0,.56.1.96.31,1.22s.54.39,1,.39h2.56v3.46h-2.86c-1.75,0-3.03-.4-3.85-1.19Z"/>
  <path class="cls-2" d="M38.69,6.29h3.76v1.91c.38-.58.92-1.05,1.63-1.42.7-.37,1.45-.55,2.22-.55h3.13l-1.74,3.52h-1.39c-1.05,0-1.91.32-2.56.95-.66.64-.98,1.45-.98,2.44v8.02h-4.05V6.29Z"/>
  <path class="cls-2" d="M51.73,9.75h-3.08l1.74-3.52h1.34v-.98c0-1.61.51-2.81,1.54-3.71,1.02-.9,2.45-1.36,4.28-1.36h2.15v3.46h-2.09c-.64,0-1.1.14-1.39.42-.29.28-.43.66-.43,1.25v.92h3.58v3.52h-3.58v11.42h-4.05v-11.42Z"/>
  <path class="cls-2" d="M61.84,20.24c-.95-.78-1.43-1.8-1.43-3.07v-1.1c0-1.25.5-2.26,1.49-3.03.99-.76,2.31-1.15,3.94-1.15h1.82c.52,0,1.07.07,1.67.21s1.14.33,1.64.57v-1.55c0-.5-.16-.9-.49-1.21s-.76-.46-1.3-.46h-2.56c-.56,0-1,.13-1.34.39s-.51.61-.51,1.04h-3.93c0-1.45.53-2.62,1.6-3.5,1.06-.88,2.46-1.33,4.19-1.33h2.56c1.75,0,3.16.46,4.23,1.39,1.07.92,1.61,2.15,1.61,3.68v10.05h-3.76v-1.79c-.48.62-1.06,1.11-1.76,1.48s-1.38.55-2.06.55h-1.85c-1.55,0-2.8-.39-3.76-1.16ZM67.74,18.3c.74,0,1.39-.19,1.97-.57.57-.38.99-.88,1.25-1.52v-.51c-.32-.24-.76-.43-1.33-.57-.57-.14-1.17-.21-1.8-.21h-1.88c-.48,0-.87.12-1.16.36-.3.24-.45.56-.45.95v.78c0,.38.16.69.49.92.33.24.76.36,1.3.36h1.61Z"/>
  <path class="cls-2" d="M80.72,20.66c-.96-.5-1.71-1.19-2.23-2.09-.53-.89-.79-1.93-.79-3.1v-3.49c0-1.17.26-2.21.79-3.1.53-.9,1.27-1.59,2.22-2.09.95-.5,2.06-.74,3.31-.74h2.36c1.19,0,2.24.24,3.16.72s1.62,1.15,2.12,2.01c.49.86.74,1.86.74,3h-4.02c0-.68-.18-1.22-.55-1.63-.37-.41-.85-.61-1.45-.61h-2.29c-.7,0-1.26.25-1.69.76s-.64,1.17-.64,1.98v2.89c0,.82.22,1.48.66,1.98.44.51,1,.76,1.7.76h2.29c.64,0,1.15-.23,1.54-.69s.58-1.06.58-1.82h4.02c0,1.81-.56,3.26-1.68,4.35s-2.61,1.64-4.46,1.64h-2.36c-1.25,0-2.36-.25-3.32-.75Z"/>
  <path class="cls-2" d="M97.44,20.7c-.96-.47-1.71-1.12-2.25-1.97-.54-.84-.81-1.81-.81-2.91v-3.85c0-1.17.27-2.21.81-3.1.54-.9,1.29-1.59,2.25-2.09.97-.5,2.07-.74,3.33-.74h2.38c1.91,0,3.44.54,4.59,1.61s1.73,2.5,1.73,4.29v3.16h-11.03v.72c0,.66.21,1.18.63,1.58.42.4.98.6,1.7.6h2.32c.7,0,1.26-.15,1.68-.46s.64-.71.64-1.21h3.99c0,.99-.27,1.88-.81,2.65-.54.78-1.29,1.37-2.25,1.79-.97.42-2.07.63-3.33.63h-2.26c-1.25,0-2.36-.23-3.33-.7ZM105.48,12.19v-.24c0-.78-.21-1.4-.63-1.86s-.97-.7-1.67-.7h-2.41c-.72,0-1.29.25-1.73.75-.44.5-.66,1.15-.66,1.97v.09h7.09Z"/>
</svg>